<?xml version="1.0" encoding="UTF-8"?>
<svg version="1.0" viewBox="0 0 499.08 765.66" xmlns="http://www.w3.org/2000/svg" xmlns:cc="http://creativecommons.org/ns#" xmlns:dc="http://purl.org/dc/elements/1.1/" xmlns:rdf="http://www.w3.org/1999/02/22-rdf-syntax-ns#" xmlns:xlink="http://www.w3.org/1999/xlink">
<g transform="translate(-.45884 -3.545)">
<g transform="translate(.15034)">
<g transform="translate(0,-1.3)">
<path d="m91.5 131.5s53.25-65 158.5-65c103.75 0 158.5 65 158.5 65v14s-66.25-74-158.5-74c-92.75 0-158.5 74-158.5 74v-14z" color="#000000" fill="#eece07" fill-rule="evenodd" stroke="#000" stroke-width="2"/>
<path d="m333.21 78.5c28.72 37.37 1.05 32.77 2.3 43 18.41-7.03 25.13-3.03 27.66 5.58 3.14 10.71-19.69 29.22-6.16 37.42-25.4 7.86-10.24-20.61-16-23.5-17.02 10.38-9.3 40.63 13.5 44l-47.51 23" fill="#eece07" fill-rule="evenodd"/>
<path d="m250.19 68.75c-31.72 39.87-6.05 36.77-7.3 47-18.41-7.03-25.13-3.03-27.66 5.58-3.14 10.71 15.69 26.22 2.16 34.42 26.4 11.36 8.24-18.11 20-20.5 11.02 20.88-1.7 43.63-24.5 41l43.61 22.75" fill="#eece07" fill-rule="evenodd"/>
<path d="m123 230h253-0.5l7-40.5-132-17-130 16.5 2.5 41z" color="#000000" fill="#eece07" fill-rule="evenodd"/>
<path d="m212.89 176.25c22.8 2.63 35.52-20.12 24.5-41-11.76 2.39 6.4 31.86-20 20.5 13.53-8.2-5.3-23.71-2.16-34.42 2.53-8.61 9.25-12.61 27.66-5.58 1.25-10.23-24.42-7.13 7.3-47" fill="none" stroke="#000" stroke-width="2"/>
<path d="m166.79 78.5c-28.72 37.37-1.05 32.77-2.3 43-18.41-7.03-25.13-3.03-27.66 5.58-3.14 10.71 19.69 29.22 6.16 37.42 25.4 7.86 10.24-20.61 16-23.5 17.02 10.38 9.3 40.63-13.5 44l43.01 7" fill="#eece07" fill-rule="evenodd"/>
<path d="m249.81 68.75c31.72 39.87 6.05 36.77 7.3 47 18.41-7.03 25.13-3.03 27.66 5.58 3.14 10.71-15.69 26.22-2.16 34.42-26.4 11.36-8.24-18.11-20-20.5-11.02 20.88 1.7 43.63 24.5 41l-41.11 24.25" fill="#eece07" fill-rule="evenodd"/>
<path d="m165.44 78.757c37.49 31.643 7.67 30.533 11.71 40.383 17.49-11.63 22.63-7.34 27.58 0.58 6.16 9.85-11.51 32.51 4.91 37.25-23.24 12.96-11.5-18.42-24.5-17.83-6.03 23.53 12.17 40.21 30.2 37.08l-32.34 39.78" fill="#eece07" fill-rule="evenodd"/>
<path d="m215.34 176.22c-18.03 3.13-36.23-13.55-30.2-37.08 13-0.59 1.26 30.79 24.5 17.83-16.42-4.74 1.25-27.4-4.91-37.25-4.95-7.92-10.09-12.21-27.58-0.58-4.04-9.85 25.78-8.74-11.71-40.383" fill="none" stroke="#000" stroke-width="2"/>
<path d="m145.49 185c22.8-3.37 30.52-33.62 13.5-44-5.76 2.89 9.4 31.36-16 23.5 13.53-8.2-9.3-26.71-6.16-37.42 2.53-8.61 9.25-12.61 27.66-5.58 1.25-10.23-26.42-5.63 2.3-43" fill="none" stroke="#000" stroke-width="2"/>
<path d="m146.27 184.74c-17.11 4.96-37.63-6.5-36.14-30.75 12.66-3.02 6.53 26.01 27.42 12.92-17.01-1.57-3.92-27.16-11.82-35.67-6.35-6.85-12.21-10.09-27.2 4.61-5.82-8.91 20.18-13.93-22.596-37.956l47.706 134.36" fill="#eece07" fill-rule="evenodd"/>
<path d="m146.27 184.74c-17.11 4.96-37.63-6.5-36.14-30.75 12.66-3.02 6.53 26.01 27.42 12.92-17.01-1.57-3.92-27.16-11.82-35.67-6.35-6.85-12.21-10.09-27.2 4.61-5.82-8.91 20.18-13.93-22.596-37.956l47.706 134.36" fill="none" stroke="#000" stroke-width="2"/>
<rect transform="matrix(.99284 -.11942 .11942 .99284 0 0)" x="149.66" y="146.06" width="10.5" height="17.5" rx="5" ry="5" color="#000000" fill="#eece07" fill-rule="evenodd" stroke="#000" stroke-width="2"/>
<path d="m91.531 140.3c2.07-0.67 3.4-0.08 4.225 2.56l3.235 10.16c0.825 2.64-0.176 3.31-2.245 3.98s-4.4-0.92-5.225-3.56l-2.235-7.16c-0.825-2.64 0.176-5.31 2.245-5.98z" color="#000000" fill="#eece07" fill-rule="evenodd" stroke="#000" stroke-width="2"/>
<rect transform="rotate(-6.6273)" x="143.67" y="209.16" width="24" height="15" rx="9.997" ry="4.9996" color="#000000" fill="#eece07" fill-rule="evenodd" stroke="#000" stroke-width="2"/>
<rect transform="rotate(-17.828)" x="40.781" y="223.68" width="10" height="15.5" rx="9.9971" ry="4.9996" color="#000000" fill="#eece07" fill-rule="evenodd" stroke="#000" stroke-width="2"/>
<path d="m334.56 78.757c-37.49 31.643-7.67 30.533-11.71 40.383-17.49-11.63-22.63-7.34-27.58 0.58-6.16 9.85 11.51 32.51-4.91 37.25 23.24 12.96 11.5-18.42 24.5-17.83 6.03 23.53-12.17 40.21-30.2 37.08l42.34 39.78" fill="#eece07" fill-rule="evenodd"/>
<path d="m287.11 176.25c-22.8 2.63-35.52-20.12-24.5-41 11.76 2.39-6.4 31.86 20 20.5-13.53-8.2 5.3-23.71 2.16-34.42-2.53-8.61-9.25-12.61-27.66-5.58-1.25-10.23 24.42-7.13-7.3-47" fill="none" stroke="#000" stroke-width="2"/>
<path d="m284.66 176.22c18.03 3.13 36.23-13.55 30.2-37.08-13-0.59-1.26 30.79-24.5 17.83 16.42-4.74-1.25-27.4 4.91-37.25 4.95-7.92 10.09-12.21 27.58-0.58 4.04-9.85-25.78-8.74 11.71-40.383" fill="none" stroke="#000" stroke-width="2"/>
<path d="m354.51 185c-22.8-3.37-30.52-33.62-13.5-44 5.76 2.89-9.4 31.36 16 23.5-13.53-8.2 9.3-26.71 6.16-37.42-2.53-8.61-9.25-12.61-27.66-5.58-1.25-10.23 26.42-5.63-2.3-43" fill="none" stroke="#000" stroke-width="2"/>
<path d="m353.73 184.74c17.11 4.96 37.63-6.5 36.14-30.75-12.66-3.02-6.53 26.01-27.42 12.92 17.01-1.57 3.92-27.16 11.82-35.67 6.35-6.85 12.21-10.09 27.2 4.61 5.82-8.91-20.18-13.93 22.6-37.956l-47.71 134.36" fill="#eece07" fill-rule="evenodd"/>
<path d="m353.73 184.74c17.11 4.96 37.63-6.5 36.14-30.75-12.66-3.02-6.53 26.01-27.42 12.92 17.01-1.57 3.92-27.16 11.82-35.67 6.35-6.85 12.21-10.09 27.2 4.61 5.82-8.91-20.18-13.93 22.6-37.956l-47.71 134.36" fill="none" stroke="#000" stroke-width="2"/>
<rect transform="matrix(-.99284 -.11942 -.11942 .99284 0 0)" x="-346.76" y="86.348" width="10.5" height="17.5" rx="5" ry="5" color="#000000" fill="#eece07" fill-rule="evenodd" stroke="#000" stroke-width="2"/>
<path d="m408.47 140.3c-2.07-0.67-3.4-0.08-4.23 2.56l-3.23 10.16c-0.83 2.64 0.18 3.31 2.24 3.98 2.07 0.67 4.4-0.92 5.23-3.56l2.23-7.16c0.83-2.64-0.17-5.31-2.24-5.98z" color="#000000" fill="#eece07" fill-rule="evenodd" stroke="#000" stroke-width="2"/>
<rect transform="matrix(-.99332 -.11541 -.11541 .99332 0 0)" x="-352.98" y="151.46" width="24" height="15" rx="9.997" ry="4.9996" color="#000000" fill="#eece07" fill-rule="evenodd" stroke="#000" stroke-width="2"/>
<rect transform="matrix(-.95198 -.30616 -.30616 .95198 0 0)" x="-435.21" y="70.599" width="10" height="15.5" rx="9.9971" ry="4.9996" color="#000000" fill="#eece07" fill-rule="evenodd" stroke="#000" stroke-width="2"/>
<rect transform="matrix(-.99994 -.011127 -.011127 .99994 0 0)" x="-256.68" y="118.06" width="10.5" height="17.5" rx="5" ry="5" color="#000000" fill="#eece07" fill-rule="evenodd" stroke="#000" stroke-width="2"/>
<rect transform="rotate(-.076461)" x="237.74" y="185.23" width="24" height="15" rx="9.997" ry="4.9996" color="#000000" fill="#eece07" fill-rule="evenodd" stroke="#000" stroke-width="2"/>
<path d="m253.9 26.843c4.14-0.424 8.97 1.165 13.11 3.426v-8.846l-0.09 0.029v-6.82c-3.98 2.172-8.58 3.715-12.6 3.455-0.15-3.937 1.38-8.387 3.48-12.242l-8.84 5e-4 0.03 0.0894h-6.82c2.09 3.8275 3.6 8.2381 3.48 12.152-4.02 0.249-8.6-1.288-12.57-3.455v6.82l-0.09-0.029v8.846c4.14-2.261 8.97-3.85 13.11-3.426 0.31 5.006-1.74 10.407-3.22 14.519h15.24c-2.7-4.49-4.18-10.029-4.22-14.519z" color="#000000" fill="#eece07" fill-rule="evenodd" stroke="#000" stroke-width="2"/>
<path transform="translate(1.25)" d="m265.5 50.25c0 9.251-7.5 16.75-16.75 16.75s-16.75-7.499-16.75-16.75c0-9.2508 7.4992-16.75 16.75-16.75s16.75 7.4992 16.75 16.75z" color="#000000" fill="#eece07" fill-rule="evenodd" stroke="#000" stroke-width="2"/>
</g>
<path d="m497.05 511.54c0 136.63-110.93 256.16-247.56 256.16-136.64 0-247.5-119.53-247.57-256.16 65.762 0.29 58.32-206.73-0.1115-227.84 0 0 75.02-68.75 248.04-68.51 175.02 0.25 248.04 69.51 248.04 69.51-59.96 19.61-68.12 226.22-0.84 226.84z" color="#000000" fill="#3a73ff" fill-rule="evenodd"/>
<g transform="translate(148.67,-3.3)" fill-rule="evenodd" stroke="#000" stroke-width="2">
<g transform="translate(-148)" fill="#ff0032">
<rect x="80.493" y="353.32" width="82.325" height="99.146" color="#000000"/>
<rect x="73.219" y="439.66" width="96.874" height="46.669" color="#000000"/>
<path d="m120.44 291.43c-6.43 0.11-12.72 0.55-18.82 1.38l3.07 29.25c-3.57 0.53-8.779 1.01-12.035 1.68l-7-27.72c-9.641 2.67-18.673 6.63-26.937 12.22 8.528 10.85 14.667 24.15 18.781 39.94l44.161-1.69 44.15 1.69c4.12-15.79 10.25-29.09 18.78-39.94-8.26-5.59-17.29-9.55-26.93-12.22l-7 27.72c-3.26-0.67-8.47-1.15-12.04-1.68l3.07-29.25c-6.1-0.83-12.38-1.28-18.82-1.38h-2.43z" color="#000000"/>
<path d="m78.921 353.89s21.919-6.72 42.669-6.72c21.07 0 42.67 6.72 42.67 6.72 3.52 1.93 1.49 10.65-1.82 8.84 0 0-24.61-6.73-40.85-6.73-16.57 0-40.849 6.73-40.849 6.73-2.941 2.15-5.253-7.25-1.82-8.84z" color="#000000"/>
<path d="m76.18 345.86s23.328-7.16 45.4-7.16c22.42 0 45.41 7.16 45.41 7.16 3.74 2.05 1.59 11.33-1.94 9.4 0 0-26.18-7.16-43.47-7.16-17.62 0-43.464 7.16-43.464 7.16-3.129 2.29-5.589-7.72-1.936-9.4z" color="#000000"/>
</g>
<path transform="translate(-147.84,1)" d="m131 408c0 5.2467-4.2533 9.5-9.5 9.5s-9.5-4.2533-9.5-9.5 4.2533-9.5 9.5-9.5 9.5 4.2533 9.5 9.5z" color="#000000"/>
<rect x="-29.845" y="375.5" width="7" height="32.5" color="#000000"/>
<rect x="-40.595" y="453.74" width="28.5" height="18.5" color="#000000"/>
</g>
<rect x="178.94" y="560.1" width="142.13" height="10.607" color="#000000" fill="#eece07" fill-rule="evenodd" stroke="#000" stroke-width="2"/>
<rect x="183.12" y="534.09" width="133.76" height="10.607" color="#000000" fill="#eece07" fill-rule="evenodd" stroke="#000" stroke-width="2"/>
<g transform="translate(-.03547 -1.3)" fill="#eece07" fill-rule="evenodd" stroke="#000" stroke-width="2">
<path d="m218.64 506.13v78.72l-5.3 10.3-5.3-10.3v-78.72h10.6z" color="#000000"/>
<path d="m292.04 506.13v78.72l-5.31 10.3-5.3-10.3v-78.72h10.61z" color="#000000"/>
<path d="m255.34 506.13v78.72l-5.3 10.3-5.31-10.3v-78.72h10.61z" color="#000000"/>
</g>
<g transform="translate(404.02,-3.3)" fill-rule="evenodd" stroke="#000" stroke-width="2">
<g transform="translate(-148)" fill="#ff0032">
<rect x="80.493" y="353.32" width="82.325" height="99.146" color="#000000"/>
<rect x="73.219" y="439.66" width="96.874" height="46.669" color="#000000"/>
<path d="m120.44 291.43c-6.43 0.11-12.72 0.55-18.82 1.38l3.07 29.25c-3.57 0.53-8.779 1.01-12.035 1.68l-7-27.72c-9.641 2.67-18.673 6.63-26.937 12.22 8.528 10.85 14.667 24.15 18.781 39.94l44.161-1.69 44.15 1.69c4.12-15.79 10.25-29.09 18.78-39.94-8.26-5.59-17.29-9.55-26.93-12.22l-7 27.72c-3.26-0.67-8.47-1.15-12.04-1.68l3.07-29.25c-6.1-0.83-12.38-1.28-18.82-1.38h-2.43z" color="#000000"/>
<path d="m78.921 353.89s21.919-6.72 42.669-6.72c21.07 0 42.67 6.72 42.67 6.72 3.52 1.93 1.49 10.65-1.82 8.84 0 0-24.61-6.73-40.85-6.73-16.57 0-40.849 6.73-40.849 6.73-2.941 2.15-5.253-7.25-1.82-8.84z" color="#000000"/>
<path d="m76.18 345.86s23.328-7.16 45.4-7.16c22.42 0 45.41 7.16 45.41 7.16 3.74 2.05 1.59 11.33-1.94 9.4 0 0-26.18-7.16-43.47-7.16-17.62 0-43.464 7.16-43.464 7.16-3.129 2.29-5.589-7.72-1.936-9.4z" color="#000000"/>
</g>
<path transform="translate(-147.84,1)" d="m131 408c0 5.2467-4.2533 9.5-9.5 9.5s-9.5-4.2533-9.5-9.5 4.2533-9.5 9.5-9.5 9.5 4.2533 9.5 9.5z" color="#000000"/>
<rect x="-29.845" y="375.5" width="7" height="32.5" color="#000000"/>
<rect x="-40.595" y="453.74" width="28.5" height="18.5" color="#000000"/>
</g>
<g transform="translate(-4.5e-5,-1.3)" fill-rule="evenodd" stroke="#000" stroke-width="2">
<rect x="202" y="311.69" width="95.993" height="124.63" color="#000000" fill="#ff0032"/>
<rect x="193.24" y="433.95" width="113.53" height="54.693" color="#000000" fill="#ff0032"/>
<path d="m248.59 249.55c-7.43 0.11-14.71 0.55-21.75 1.38l3.54 29.25c-4.12 0.53-10.15 1.01-13.92 1.68l-8.09-27.72c-11.15 2.67-21.59 6.63-31.15 12.22 9.86 10.85 16.96 24.15 21.72 39.94l51.06-1.69 51.06 1.69c4.76-15.79 11.86-29.09 21.72-39.94-9.56-5.59-20-9.55-31.15-12.22l-8.09 27.72c-3.77-0.67-9.8-1.15-13.92-1.68l3.54-29.25c-7.05-0.83-14.3-1.28-21.75-1.38h-2.82z" color="#000000" fill="#ff0032"/>
<path d="m200.58 312.01s25.35-6.72 49.34-6.72c24.37 0 49.34 6.72 49.34 6.72 4.07 1.93 1.74 10.65-2.1 8.84 0 0-28.45-6.73-47.24-6.73-19.15 0-47.23 6.73-47.23 6.73-3.4 2.15-6.08-7.25-2.11-8.84z" color="#000000" fill="#ff0032"/>
<path d="m197.41 303.98s26.98-7.16 52.51-7.16c25.92 0 52.5 7.16 52.5 7.16 4.33 2.05 1.85 11.33-2.23 9.4 0 0-30.28-7.16-50.27-7.16-20.39 0-50.27 7.16-50.27 7.16-3.62 2.29-6.46-7.72-2.24-9.4z" color="#000000" fill="#ff0032"/>
<path transform="translate(128.5,-21.879)" d="m131 408c0 5.2467-4.2533 9.5-9.5 9.5s-9.5-4.2533-9.5-9.5 4.2533-9.5 9.5-9.5 9.5 4.2533 9.5 9.5z" color="#000000"/>
<rect x="246.5" y="352.62" width="7" height="32.5" color="#000000"/>
<rect x="235.75" y="456.86" width="28.5" height="18.5" color="#000000"/>
</g>
<path d="m497.05 511.54c0 112.49-75.4 213.39-178.22 245.53l0.2-180.1s-9.81-61-69.11-61c-58.59 0-69.1 61-69.1 61v180.37c-103.26-31.84-178.84-132.99-178.9-245.8 16.53 0.07 28.434-12.95 36.066-32.83l422.34-0.2c7.76 19.81 19.88 32.87 36.72 33.03z" color="#000000" fill="#ff0032" fill-rule="evenodd"/>
<g transform="matrix(1 0 0 1.0526 .3025 -10.55)" fill="#eece07" fill-rule="evenodd" stroke="#000" stroke-width="1.9494">
<g transform="translate(0 -.75203)">
<path d="m144.5 185.5 8 37.5" color="#000000"/>
<path d="m214 177.5 3.5 40" color="#000000"/>
</g>
<g transform="matrix(-1 0 0 1 499.4 -.75203)">
<path d="m144.5 185.5 8 37.5" color="#000000"/>
<path d="m214 177.5 3.5 40" color="#000000"/>
</g>
</g>
<path d="m37 479.7h425" fill="none" stroke="#000" stroke-width="2"/>
<path d="m30.533 495.7h438.94" fill="none" stroke="#000" stroke-width="2"/>
<path d="m2.6639 522.7h194.62m106.07 0h193.99" fill="none" stroke="#000" stroke-width="2"/>
<path d="m6.6452 549.7h170.83m146.37 0h169.5" fill="none" stroke="#000" stroke-width="2"/>
<path d="m10.626 576.7h158.37m162.63 0h157.74" fill="none" stroke="#000" stroke-width="2"/>
<path d="m19.458 603.7h149.54m162.63 0h146.79" fill="none" stroke="#000" stroke-width="2"/>
<path d="m33.519 630.7h135.48m163.34 0h134.14" fill="none" stroke="#000" stroke-width="2"/>
<path d="m47.328 657.7h121.67m162.63 0h118.92" fill="none" stroke="#000" stroke-width="2"/>
<path d="m69.225 684.7h99.775m164.05 0h95.6" fill="none" stroke="#000" stroke-width="2"/>
<path d="m33.272 495.76v26.16" color="#000000" fill="none" stroke="#000" stroke-width="2"/>
<path d="m466.73 495.76v26.16" color="#000000" fill="none" stroke="#000" stroke-width="2"/>
<path d="m87.454 495.76v26.16" color="#000000" fill="none" stroke="#000" stroke-width="2"/>
<path d="m141.64 495.76v26.16" color="#000000" fill="none" stroke="#000" stroke-width="2"/>
<path d="m195.82 495.76v26.16" color="#000000" fill="none" stroke="#000" stroke-width="2"/>
<path d="m250 495.08v8.43" color="#000000" fill="none" stroke="#000" stroke-width="2"/>
<path d="m304.18 495.76v26.16" color="#000000" fill="none" stroke="#000" stroke-width="2"/>
<path d="m358.36 495.76v26.16" color="#000000" fill="none" stroke="#000" stroke-width="2"/>
<path d="m412.55 495.76v26.16" color="#000000" fill="none" stroke="#000" stroke-width="2"/>
<path d="m33.272 550.56v26.16" color="#000000" fill="none" stroke="#000" stroke-width="2"/>
<path d="m33.272 604.7v26.17" color="#000000" fill="none" stroke="#000" stroke-width="2"/>
<path d="m466.73 549.65v26.16" color="#000000" fill="none" stroke="#000" stroke-width="2"/>
<path d="m466.73 603.79v26.17" color="#000000" fill="none" stroke="#000" stroke-width="2"/>
<path d="m87.454 549.85v26.16" color="#000000" fill="none" stroke="#000" stroke-width="2"/>
<path d="m87.454 604.3v26.16" color="#000000" fill="none" stroke="#000" stroke-width="2"/>
<path d="m87.454 658.04v26.16" color="#000000" fill="none" stroke="#000" stroke-width="2"/>
<path d="m412.55 550.2v26.17" color="#000000" fill="none" stroke="#000" stroke-width="2"/>
<path d="m412.55 604.65v26.16" color="#000000" fill="none" stroke="#000" stroke-width="2"/>
<path d="m412.55 658.39v26.16" color="#000000" fill="none" stroke="#000" stroke-width="2"/>
<path d="m60.363 523.69v26.16" color="#000000" fill="none" stroke="#000" stroke-width="2"/>
<path d="m60.363 576.72v26.16" color="#000000" fill="none" stroke="#000" stroke-width="2"/>
<path d="m60.363 630.46v26.16" color="#000000" fill="none" stroke="#000" stroke-width="2"/>
<path d="m439.64 522.53v26.16" color="#000000" fill="none" stroke="#000" stroke-width="2"/>
<path d="m439.64 576.06v26.16" color="#000000" fill="none" stroke="#000" stroke-width="2"/>
<path d="m439.64 630.1v26.16" color="#000000" fill="none" stroke="#000" stroke-width="2"/>
<path d="m180.49 757.39v-170.94c0-38.36 31.14-69.5 69.51-69.5s69.51 31.14 69.51 69.5v169.52" color="#000000" fill="none" stroke="#000" stroke-width="2"/>
<g id="b" transform="translate(0,-1.3)">
<path d="m168.73 524.99v26.16" color="#000000" fill="none" stroke="#000" stroke-width="2"/>
<path d="m168.7 754.54c-23.91-8.81-46.15-21.38-66.11-36.94l-0.44-200.99h9.24c32.74 2.49 58.22 33.62 58.14 53.33l-0.83 184.6z" color="#000000" fill="#eece07" fill-rule="evenodd"/>
<path d="m168.81 593.93v-18.92c0-31.51-25.57-57.08-57.08-57.08h-9.51v200.45" color="#000000" fill="none" stroke="#000" stroke-width="2"/>
<path d="m110.31 516.74v205.39" color="#000000" fill="#eece07" fill-rule="evenodd" stroke="#000" stroke-width="2"/>
<g transform="matrix(-.5741 -.26102 0 .67614 350.81 218.74)">
<path id="a" d="m316.81 806.42h33.97c10.25-3.07-8.13-7.9-7.42-12.38 6.06 3.9 8.01-0.26 15.48-3.17 7.63-2.97 13.7-0.05 15.22 6.43 1.14 4.92-6.78 6.91-4.54 9.12 8.04 0.29 11.48-12.49 25.89 6.19" color="#000000" fill="none" stroke="#000" stroke-width="3.2101"/>
<use transform="matrix(1,0,0,-1,-3.0825e-5,1624.7)" width="500" height="770" xlink:href="#a"/>
</g>
<g transform="matrix(-.5741 -.26102 0 .67614 350.81 140.74)">
<path d="m316.81 806.42h33.97c10.25-3.07-8.13-7.9-7.42-12.38 6.06 3.9 8.01-0.26 15.48-3.17 7.63-2.97 13.7-0.05 15.22 6.43 1.14 4.92-6.78 6.91-4.54 9.12 8.04 0.29 11.48-12.49 25.89 6.19" color="#000000" fill="none" stroke="#000" stroke-width="3.2101"/>
<use transform="matrix(1,0,0,-1,-3.0825e-5,1624.7)" width="500" height="770" xlink:href="#a"/>
</g>
</g>
<use width="500" height="770" fill="#f1d73c" xlink:href="#b"/>
<use transform="matrix(-1 0 0 1 499.68 -.5)" width="500" height="770" fill="#f1d73c" xlink:href="#b"/>
<path d="m168.76 752.44v-167.34c0-44.85 36.4-81.24 81.24-81.24s81.24 36.39 81.24 81.24v168.75" color="#000000" fill="none" stroke="#000" stroke-width="2"/>
<g transform="translate(.09518 -1.3)" stroke="#000" stroke-width="2">
<path d="m227.25 691c-4.95 2.8-9.9 5.6-15.5 7.75-2.75 2.08-5.5 1.24-8.25 0.75-6.26-4.44-10.39-3.35-12.5-0.75l1 4.5 1.25-2c1.98 0.75 4.44 0 8 2.25-7.6 1.92-14.47 2.84-12.75 9l3.25 3.75-0.25-3.5c1.62-2.88 5.29-2.96 9.75-3.75-4.89 4.58-8.58 6.92-6.5 10.75l4 4-0.25-4.75c1.2-1.73 5.07-7.13 8-8.25 5.26-2.65 9.28-1.46 9.75 0.5l-2 3.75 5.25-2.25c1.88-8.25-2.46-4.58-4.25-7.5 0 0-1.19-2.25 3.25-4.75s8.12-2.69 14.5-5.25" fill="#eece07" fill-rule="evenodd"/>
<path d="m193 701-1.75-2" fill="none"/>
<path d="m195.75 720.5 2.5-1.5" fill="none"/>
<path d="m189 712.75h2.5" fill="none"/>
<path d="m216.5 711.75 2.75 1" fill="none"/>
</g>
<path d="m238.1 646.7c-17.39 1.62-15.95-6.52-16.54-10.5-1.02-6.96 8.63-14.92 5.54-21.5-3.41-13.13-26.41-0.96-38-10.5-1.55 6.53 0.43 12.61 20 16.5-8.81-0.1-16.85-0.58-23-2 0.43 8.44 4.74 13.56 14.5 14-3.84 3.33-11.17 2.67-16 7 3.49 8.73 11.02 9.87 18.5 8-7 4-10.5 5-17.5 11.5 6.07 9.6 14.93 7.17 25-0.5-15.17 10-12.84 14-26 22.5 14.05 14.7 23.74-4.11 39.5-19.5-4.58 8.17-12.04 16.33-15.5 24.5 14.09 3.8 17.57-4.64 25-19" fill="#fefefe" fill-rule="evenodd" stroke="#000" stroke-width="2"/>
<path d="m224.1 661.7c-6.5 8.67-7.5 15.33-15 23" fill="none" stroke="#000" stroke-width="2"/>
<path d="m250.1 759.15c-3.84-2.59-4.48-5.18-4.64-7.77-9.37 0.34-9.76-4.71-9.9-9.9 8.74 4.06 10.63-0.99 10.96-8.14-3.12 8.79-20-2.75-18.03 8.84-15.61-21.68 20.74-6.34 16.62-20.5-12.46 10.29-35.1-7.07-26.17 13.43-7.83-5.41-6.22-9.04-4.59-15.91 1.12-9.54 29.15 2.15 31.46-9.9-13.54 4.28-11.31-1.96-11.31-6.71 11.78 4.45 10.08-6.33 11.1-15.39-4.23 7.17-10.13 8.33-11 12.5-0.52-6.48-4.53-7.72-7.5-10.5 2-7.2 3.09-15.49 11.5-15l-4.5-9 21.25-1" fill="#fefefe" fill-rule="evenodd" stroke="#000" stroke-width="2"/>
<path d="m245.11 751.02c0.59-3.18 1.88-3.53 2.83-5.3" fill="none" stroke="#000" stroke-width="2"/>
<path d="m209.67 618.9c-3.66 0.34-5.81 2.65-9.46 4.84 2.82 3.91 5.65 4.43 8.48 5.66-3.66 0.22-6.45 2.17-9.19 4.24 2.93 3 5.71 6.62 9.55 6.01-4.98 2.09-6.12 5.13-7.43 8.13 3.3 2 6.6 2.13 9.9 0.36-2.26 2.38-4.43 4.26-4.85 9.4 3.65 0.35 6.74-0.21 9.45-2.68-0.97 4-3.55 7.81-1.01 11.82 4.15-0.14 7.22-2.16 9.49-5.11 0 3.3-1.38 6.6 2.12 9.9 4.21-0.2 6.09-2.81 7.48-6.77" fill="#fefefe" fill-rule="evenodd" stroke="#000" stroke-width="2"/>
<path d="m238.1 646.95c1.44-4.91 10.6-7.88 8-17.5 5.93-2.6-2.23-6.24-3.5-14 4.83-2.58 12.66-2.51 19 0.25 8.06 11.75-7.74 21 2.25 32.25-9.43 6.37-18.32 8.55-25.75-1z" fill="#fefefe" fill-rule="evenodd" stroke="#000" stroke-width="2"/>
<path d="m246.35 628.95c4.25 2.44 7.82 1 5.5-3.52-1.87-3.65-7.25-5.14-9.75-10.48-8.93 0.04-6.93 5.54-5.5 10.75 3.27-2.88 6.38-6.28 12.25-0.75l0.5 0.75c-12.47-4.11-11.2 9.35-18-0.25 2.72 8.96 10.14 2.79 15 3.5z" fill="#eece07" fill-rule="evenodd" stroke="#000" stroke-width="2"/>
<path d="m247.6 618.45c3.5 3.42 4.75 0.41 8.25 0.25-3.47-2.24-6.26-2.42-8.25-0.25z" fill="none" stroke="#000" stroke-width="2"/>
<g transform="matrix(.90002 0 0 1 24.241 -1.2)">
<path id="c" d="m254 616.25h-11.25l-5.75-17.25c3.64 0.85 2.82 4.54 4.84 3.78 1.93-0.74 2.99 0.17 4.3 2.51-3.68 0.24-3.93 1.46-3.02 2.57 1.21 1.47 2.67 2.98 4.33 2.98 2.36 0 3.43-1.56 4.03-3.1 0.49-1.24-1.19-3.52-3.61-2.49-0.2-4.92 4.3-1.86 5.63-7.96" fill="#eece07" fill-rule="evenodd" stroke="#000" stroke-width="2.1082"/>
<use transform="matrix(-1,0,0,1,506.86,0)" width="500" height="770" stroke="#000000" stroke-width="2.1082" xlink:href="#c"/>
</g>
<g transform="matrix(-1,0,0,1,499.9,-1.2277)" stroke="#000" stroke-width="2">
<path d="m227.25 691c-4.95 2.8-9.9 5.6-15.5 7.75-2.75 2.08-5.5 1.24-8.25 0.75-6.26-4.44-10.39-3.35-12.5-0.75l1 4.5 1.25-2c1.98 0.75 4.44 0 8 2.25-7.6 1.92-14.47 2.84-12.75 9l3.25 3.75-0.25-3.5c1.62-2.88 5.29-2.96 9.75-3.75-4.89 4.58-8.58 6.92-6.5 10.75l4 4-0.25-4.75c1.2-1.73 5.07-7.13 8-8.25 5.26-2.65 9.28-1.46 9.75 0.5l-2 3.75 5.25-2.25c1.88-8.25-2.46-4.58-4.25-7.5 0 0-1.19-2.25 3.25-4.75s8.12-2.69 14.5-5.25" fill="#eece07" fill-rule="evenodd"/>
<path d="m193 701-1.75-2" fill="none"/>
<path d="m195.75 720.5 2.5-1.5" fill="none"/>
<path d="m189 712.75h2.5" fill="none"/>
<path d="m216.5 711.75 2.75 1" fill="none"/>
</g>
<path d="m261.9 646.77c17.39 1.63 15.95-6.52 16.54-10.49 1.02-6.96-8.63-14.93-5.54-21.51 3.41-13.13 26.41-0.96 38-10.5 1.55 6.53-0.43 12.61-20 16.5 8.81-0.09 16.85-0.57 23-2-0.43 8.44-4.74 13.56-14.5 14 3.84 3.34 11.17 2.67 16 7-3.49 8.73-11.02 9.87-18.5 8 7 4 10.5 5 17.5 11.5-6.07 9.61-14.93 7.17-25-0.5 15.17 10 12.84 14 26 22.5-14.05 14.7-23.74-4.11-39.5-19.5 4.58 8.17 12.04 16.34 15.5 24.5-14.09 3.81-17.57-4.64-25-19" fill="#fefefe" fill-rule="evenodd" stroke="#000" stroke-width="2"/>
<path d="m249.9 759.23c3.84-2.6 4.48-5.19 4.64-7.78 9.37 0.34 9.76-4.71 9.9-9.9-8.74 4.06-10.63-0.99-10.96-8.13 3.12 8.78 20-2.76 18.03 8.84 15.61-21.68-20.74-6.35-16.62-20.51 12.46 10.3 35.1-7.07 26.17 13.43 7.83-5.41 6.22-9.04 4.59-15.91-1.12-9.54-29.15 2.16-31.46-9.89 13.54 4.27 11.31-1.97 11.31-6.72-11.78 4.45-10.08-6.32-11.1-15.39 4.23 7.17 10.13 8.34 11 12.5 0.52-6.48 4.53-7.72 7.5-10.5-2-7.19-3.09-15.49-11.5-15l4.5-9-21.25-1" fill="#fefefe" fill-rule="evenodd" stroke="#000" stroke-width="2"/>
<path d="m238.84 647.04c-11.43 0.9-4.57 30.91 11.09 47.32v0.43c0.07-0.07 0.15-0.15 0.22-0.21 0.03 0.03 0.06 0.08 0.09 0.12v-0.22c19.37-20.25 25.28-61.29-0.09-42.59-4.89-3.62-8.61-5.06-11.31-4.85z" fill="#fefefe" fill-rule="evenodd" stroke="#000" stroke-width="2"/>
<path d="m254.89 751.09c-0.59-3.18-1.88-3.53-2.83-5.3" fill="none" stroke="#000" stroke-width="2"/>
<path d="m290.33 618.97c3.66 0.34 5.81 2.65 9.46 4.85-2.82 3.9-5.65 4.42-8.48 5.65 3.66 0.22 6.45 2.17 9.19 4.24-2.93 3.01-5.71 6.63-9.55 6.02 4.98 2.08 6.12 5.13 7.43 8.13-3.3 1.99-6.6 2.13-9.9 0.35 2.26 2.38 4.43 4.26 4.85 9.4-3.65 0.35-6.74-0.21-9.45-2.68 0.97 4.01 3.55 7.81 1.01 11.82-4.15-0.14-7.22-2.16-9.49-5.1 0 3.3 1.38 6.6-2.12 9.9-4.21-0.21-6.09-2.82-7.48-6.78" fill="#fefefe" fill-rule="evenodd" stroke="#000" stroke-width="2"/>
<path d="m497.05 511.54c0 136.63-110.93 256.16-247.56 256.16-136.64 0-247.5-119.53-247.57-256.16 65.762 0.29 58.32-206.73-0.1115-227.84 0 0 75.02-68.75 248.04-68.51 175.02 0.25 248.04 69.51 248.04 69.51-59.96 19.61-68.12 226.22-0.84 226.84z" color="#000000" fill="none" stroke="#000" stroke-width="3"/>
</g>
</g>
<metadata>
<rdf:RDF>
<cc:Work>
<dc:format>image/svg+xml</dc:format>
<dc:type rdf:resource="http://purl.org/dc/dcmitype/StillImage"/>
<cc:license rdf:resource="http://creativecommons.org/licenses/publicdomain/"/>
<dc:publisher>
<cc:Agent rdf:about="http://openclipart.org/">
<dc:title>Openclipart</dc:title>
</cc:Agent>
</dc:publisher>
</cc:Work>
<cc:License rdf:about="http://creativecommons.org/licenses/publicdomain/">
<cc:permits rdf:resource="http://creativecommons.org/ns#Reproduction"/>
<cc:permits rdf:resource="http://creativecommons.org/ns#Distribution"/>
<cc:permits rdf:resource="http://creativecommons.org/ns#DerivativeWorks"/>
</cc:License>
</rdf:RDF>
</metadata>
</svg>
